<?xml version="1.0" encoding="UTF-8"?>
<!-- Generated by Pixelmator Pro 3.7.1 -->
<svg width="1024" height="1024" viewBox="0 0 1024 1024" xmlns="http://www.w3.org/2000/svg">
    <g id="Shape">
        <path id="path1" fill="#00ff00" fill-rule="evenodd" stroke="none" d="M 515 924.452148 C 510.325012 924.697754 504.181 924.481384 501.34668 923.971436 C 498.51236 923.461487 493.765381 922.135864 490.797852 921.025574 C 487.830322 919.915283 483.215485 917.619995 480.542694 915.924927 C 477.869873 914.229858 473.140472 910.290833 470.032928 907.171509 C 466.925354 904.052185 462.557343 898.799988 460.326263 895.5 C 458.095154 892.200012 454.473541 885.900024 452.278259 881.5 C 450.082947 877.099976 446.87915 869.674988 445.158691 865 C 443.438232 860.325012 440.701385 851.775024 439.076843 846 C 437.452271 840.224976 434.970581 829.981201 433.561951 823.236084 C 432.153351 816.490906 430.134216 805.465881 429.074982 798.736084 C 428.015778 792.006226 426.43927 780.650024 425.571625 773.5 C 424.703979 766.349976 423.337982 753.525024 422.536072 745 C 421.734161 736.474976 420.616455 721.849976 420.052277 712.5 C 419.488098 703.150024 418.520599 684.480713 417.902252 671.012695 C 416.926025 649.748901 416.983276 645.483521 418.337311 638.610596 C 419.204803 634.207397 421.682861 626.973145 423.922699 622.305237 C 426.137054 617.69043 429.929504 611.346313 432.350342 608.207275 C 434.771179 605.068298 439.227814 600.16394 442.253998 597.308716 C 445.280182 594.453491 450.953094 590.049316 454.860474 587.521606 C 458.767883 584.993958 465.229218 581.536743 469.218994 579.838928 C 476.473145 576.752014 476.473145 576.752014 486.486572 578.625977 C 493.452515 579.929688 501.065094 580.5 511.5 580.5 C 522.434265 580.5 529.210449 579.962158 536.5 578.515625 C 542 577.424255 547.520081 576.654968 548.766785 576.806152 C 550.01355 576.957275 554.596741 578.58374 558.95166 580.42041 C 563.30658 582.25708 570.010986 585.848145 573.850403 588.400513 C 577.689758 590.952942 584.260925 596.687256 588.452942 601.143433 C 594.229675 607.284058 597.140747 611.455139 600.477844 618.372742 C 602.899536 623.3927 605.470215 630.424988 606.19043 634 C 606.978333 637.910767 607.427734 646.270508 607.318604 654.98645 C 607.218811 662.953979 606.426025 681.403931 605.556763 695.98645 C 604.687561 710.568909 603.280884 730.375 602.430908 740 C 601.580872 749.625 599.998474 764.700012 598.914429 773.5 C 597.830444 782.299988 596.024048 795.125 594.900269 802 C 593.776489 808.875 591.506714 820.731934 589.856262 828.348755 C 588.205811 835.965515 585.052185 847.838074 582.848145 854.732117 C 580.644165 861.62616 577.13446 871.201111 575.048828 876.009766 C 572.963196 880.818481 569.137512 888.028931 566.547241 892.03302 C 563.957031 896.037109 560.186707 901.304077 558.168884 903.737305 C 556.151001 906.170532 551.799988 910.214722 548.5 912.724365 C 545.200012 915.234009 540.477295 918.192505 538.005127 919.298828 C 535.532959 920.40509 531.257996 921.916687 528.505127 922.657959 C 525.752319 923.399231 519.674988 924.206665 515 924.452148 Z M 380.311279 763.860107 C 374.91507 763.783081 366.106598 763.357361 360.736908 762.91394 C 355.367188 762.470581 345.6922 761.38031 339.236908 760.49115 C 332.781616 759.60199 322.149323 757.747742 315.609619 756.370605 C 309.069885 754.993408 297.594879 752.106812 290.109619 749.95575 C 282.624329 747.804688 271.100006 743.994385 264.5 741.488281 C 257.899994 738.982178 247.324997 734.445068 241 731.405762 C 234.675003 728.366516 223.875 722.518066 217 718.409302 C 210.125 714.300537 200.149063 707.690063 194.831238 703.719421 C 189.513428 699.748779 180.55368 692.450012 174.920685 687.5 C 169.287704 682.549988 160.664886 674.029419 155.758881 668.565308 C 150.852875 663.101257 143.123413 653.651245 138.582321 647.565308 C 134.041214 641.47937 127.566589 632.064819 124.194267 626.644104 C 120.821938 621.223389 115.618248 611.998413 112.630516 606.144104 C 109.642776 600.289856 105.101288 590.578308 102.538307 584.562866 C 99.975334 578.547485 96.082932 568.422485 93.888527 562.062866 C 91.694115 555.703308 88.548111 545.443726 86.897392 539.263794 C 85.246681 533.083862 82.997391 523.408875 81.898972 517.763794 C 80.800552 512.118713 79.253746 501.424988 78.461632 494 C 77.66951 486.575012 77.021416 473.75 77.021416 465.5 C 77.021416 457.25 77.675705 444.335022 78.475403 436.799988 C 79.275093 429.265015 81.05143 417.558472 82.422821 410.7854 C 83.794205 404.012329 86.528542 392.922729 88.499123 386.141785 C 90.469696 379.360901 94.307655 368.117493 97.027916 361.156433 C 99.748169 354.195374 104.839592 342.625977 108.342186 335.446594 C 111.844772 328.267273 118.205856 316.567261 122.477921 309.446594 C 126.749985 302.325989 133.416412 292 137.292221 286.5 C 141.168015 281 147.524689 272.450012 151.418152 267.5 C 155.311615 262.549988 161.827789 254.674988 165.898529 250 C 169.969284 245.325012 177.394913 237.291382 182.399948 232.147522 C 187.404968 227.003662 196.225006 218.486206 202 213.219788 C 207.774994 207.953369 216.100006 200.758606 220.5 197.231384 C 228.5 190.818298 228.5 190.818298 238 191.406006 C 243.225006 191.729248 254.475006 193.093079 263 194.436768 C 271.524994 195.780396 283.778198 198.001282 290.22934 199.37207 C 296.680481 200.742798 308.282593 203.565247 316.011841 205.644165 C 324.688812 207.978027 329.956909 209.869385 329.782501 210.588196 C 329.627136 211.228455 327.924988 213.495544 326 215.62616 C 324.075012 217.756775 320.700012 221.966125 318.5 224.980225 C 316.299988 227.994324 313.568756 231.545166 312.430573 232.870972 C 310.361115 235.281494 310.361115 235.281494 300.430573 232.723206 C 294.96875 231.316101 286 229.230469 280.5 228.08844 C 275 226.946472 266.225006 225.328491 261 224.492981 C 255.774994 223.657471 248.350006 222.708557 244.5 222.384277 C 237.5 221.794678 237.5 221.794678 227.011078 231.143066 C 221.242172 236.284668 212.528687 244.543335 207.647797 249.495728 C 202.766891 254.448059 194.738129 263 189.806076 268.5 C 184.874039 274 176.862946 283.706787 172.003662 290.070618 C 167.144379 296.434448 159.826843 306.784485 155.742477 313.070618 C 151.658112 319.356812 145.573349 329.450012 142.220795 335.5 C 138.868225 341.549988 133.859253 351.531921 131.089722 357.682068 C 128.320206 363.832214 124.212662 374.18219 121.96183 380.682068 C 119.711006 387.181946 116.51944 397.674988 114.869461 404 C 113.219482 410.325012 110.977577 421.349976 109.887451 428.5 C 108.797318 435.650024 107.632645 448.640198 107.299286 457.367126 C 106.929634 467.044067 107.164261 478.16272 107.900703 485.867126 C 108.564835 492.815186 110.009819 503.580444 111.111771 509.789917 C 112.21373 515.99939 114.654671 526.696533 116.536102 533.561279 C 118.417526 540.426086 122.253105 552.220581 125.059608 559.771362 C 127.866112 567.322144 133.641861 580.474976 137.894608 589 C 142.147354 597.525024 149.092026 609.768494 153.327209 616.207764 C 157.562378 622.647095 163.827744 631.422058 167.250244 635.707764 C 170.672729 639.99353 177.979034 648.164673 183.486481 653.865967 C 188.993912 659.567261 197.891327 667.770691 203.258499 672.095825 C 208.625671 676.421021 216.950668 682.603821 221.758499 685.835327 C 226.56633 689.066895 234.550003 694.012451 239.5 696.825562 C 244.449997 699.638672 253.520004 704.187378 259.655548 706.933838 C 265.791138 709.680359 276.141113 713.775757 282.655548 716.03479 C 289.170013 718.293762 300.395935 721.663086 307.602081 723.522095 C 314.808228 725.381104 326.058228 727.796265 332.602081 728.88916 C 339.145935 729.982056 348.549988 731.3349 353.5 731.895508 C 358.450012 732.456116 368.003967 733.222229 374.731049 733.597961 C 386.962097 734.281128 386.962097 734.281128 387.434967 737.390564 C 387.695038 739.100708 388.155853 743.875 388.458984 748 C 388.762115 752.125 389.260437 757.412476 389.566345 759.75 C 390.122559 764 390.122559 764 380.311279 763.860107 Z M 634.682861 764.321838 C 635.656738 753.609924 636.237793 746.847778 636.602356 742.383911 C 637.265198 734.267822 637.265198 734.267822 649.382629 733.591309 C 656.04718 733.219238 665.549988 732.456116 670.5 731.895508 C 675.450012 731.3349 684.854065 729.982056 691.397949 728.88916 C 697.941772 727.796265 709.191772 725.381104 716.397949 723.522095 C 723.604065 721.663086 734.830017 718.293762 741.344421 716.03479 C 747.858887 713.775757 758.208862 709.680359 764.344421 706.933838 C 770.47998 704.187378 779.549988 699.638672 784.5 696.825562 C 789.450012 694.012451 797.454773 689.052734 802.28833 685.803833 C 807.121887 682.555054 814.771912 676.946289 819.28833 673.339966 C 823.804749 669.733704 831.252075 663.119385 835.837952 658.641602 C 840.423828 654.163696 847.442261 646.674988 851.434448 642 C 855.426697 637.325012 861.405151 629.674988 864.719971 625 C 868.034851 620.325012 873.267761 612.28833 876.348755 607.140747 C 879.429749 601.993164 884.483032 592.573486 887.578247 586.20813 C 890.673462 579.842773 895.445679 568.777588 898.183105 561.618835 C 900.920593 554.460083 904.710693 543.216492 906.605591 536.633057 C 908.500488 530.049683 911.135132 518.77655 912.460388 511.581665 C 913.785645 504.386719 915.418213 492.815186 916.088379 485.867126 C 916.836792 478.107361 917.072998 467.113647 916.700745 457.367126 C 916.367371 448.640198 915.202698 435.650024 914.112549 428.5 C 913.0224 421.349976 910.780518 410.325012 909.130554 404 C 907.48053 397.674988 904.289001 387.181946 902.038147 380.682068 C 899.787354 374.18219 895.67981 363.832214 892.910278 357.682068 C 890.140747 351.531921 885.131775 341.549988 881.779236 335.5 C 878.426636 329.450012 872.322388 319.325012 868.214172 313 C 864.106018 306.674988 856.590698 296.099976 851.513611 289.5 C 846.436462 282.900024 838.438049 273.224976 833.739319 268 C 829.040588 262.775024 821.105225 254.35553 816.105225 249.290039 C 811.105164 244.224548 802.39856 235.96582 796.757141 230.937378 C 786.5 221.794678 786.5 221.794678 779.5 222.380432 C 775.650024 222.702576 767.099976 223.862 760.5 224.956909 C 753.900024 226.051758 744.224976 227.876282 739 229.011414 C 733.775024 230.146484 725.247559 232.221863 720.050171 233.623352 C 710.600342 236.171509 710.600342 236.171509 708.550171 233.377991 C 707.422607 231.841553 704.739014 228.134949 702.58667 225.141052 C 700.434387 222.147156 697.284363 218.12738 695.58667 216.208313 C 693.889038 214.289185 692.362061 212.146545 692.193481 211.446899 C 692.003601 210.65863 694.095459 209.532166 697.693481 208.485168 C 700.887085 207.555908 708.450012 205.50116 714.5 203.919128 C 720.549988 202.337036 730.900024 199.945129 737.5 198.60376 C 744.099976 197.26239 755.765564 195.210571 763.423462 194.04425 C 771.081421 192.87793 781.431396 191.674805 786.423462 191.370667 C 795.5 190.817749 795.5 190.817749 803.5 197.231079 C 807.900024 200.758484 816.224976 207.927002 822 213.161194 C 827.775024 218.395447 837.505432 227.893005 843.62323 234.266968 C 849.740967 240.640869 858.446472 250.275879 862.96875 255.677979 C 867.491028 261.080078 874.235046 269.549988 877.955505 274.5 C 881.675903 279.450012 887.871338 288.224976 891.723145 294 C 895.57489 299.775024 901.565491 309.43512 905.035583 315.466919 C 908.505676 321.498718 913.965698 331.912781 917.169006 338.609253 C 920.372253 345.305786 925.018066 356.023926 927.492981 362.42749 C 929.967896 368.830994 933.588257 379.560364 935.538269 386.270508 C 937.488281 392.980652 940.172729 403.877319 941.503723 410.485413 C 942.834717 417.093445 944.503418 427.674988 945.211853 434 C 945.920349 440.325012 946.5 454.5 946.5 465.5 C 946.5 476.5 945.920349 490.674988 945.211853 497 C 944.503418 503.325012 942.831665 513.921631 941.496948 520.548096 C 940.162231 527.174561 937.47998 538.120911 935.536438 544.873413 C 933.592896 551.625854 929.71637 563.304199 926.921936 570.825317 C 924.127563 578.346375 918.311157 591.700012 913.996704 600.5 C 909.68219 609.299988 903.344604 621 899.913208 626.5 C 896.48175 632 889.967834 641.450012 885.437805 647.5 C 880.907715 653.549988 872.947083 663.224976 867.747375 669 C 862.547668 674.775024 853.91217 683.325012 848.557312 688 C 843.202454 692.674988 834.698975 699.578064 829.660645 703.340149 C 824.622253 707.102295 816.450012 712.687378 811.5 715.751587 C 806.549988 718.815796 798 723.70282 792.5 726.611694 C 787 729.520508 777.325012 734.115112 771 736.821899 C 764.674988 739.528687 753.875 743.597168 747 745.863037 C 740.125 748.128845 729.325012 751.314392 723 752.942017 C 716.674988 754.569702 706.549988 756.819519 700.5 757.94165 C 694.450012 759.063843 683.963867 760.651672 677.197388 761.470215 C 670.430969 762.288818 658.097168 763.265259 649.788879 763.640137 L 634.682861 764.321838 Z M 643.10321 632.764832 C 641.467896 633.926514 641.137573 633.274536 639.050659 624.764893 C 637.800964 619.669312 635.630859 612.705688 634.22821 609.290161 C 631.677917 603.080078 631.677917 603.080078 641.215149 593.143616 C 646.460693 587.678589 653.438354 579.673035 656.721191 575.353577 C 660.004028 571.034119 665.032043 563.756836 667.894592 559.181763 C 670.75708 554.606812 675.295715 546.731812 677.980347 541.681763 C 680.664978 536.631836 684.644165 528 686.822998 522.5 C 689.001831 517 692.406067 507.325012 694.387939 501 C 696.369873 494.674988 699.07666 484.549988 700.403137 478.5 C 701.729553 472.450012 703.518311 462.549988 704.378113 456.5 C 705.237915 450.450012 706.403076 440.325012 706.967285 434 C 707.531555 427.674988 707.99469 416.197266 707.996582 408.493896 C 707.998474 400.790527 707.319458 388.669983 706.487671 381.559387 C 705.655945 374.448792 703.823425 363.494812 702.415466 357.217224 C 701.007507 350.939636 698.06958 340.560181 695.886658 334.151733 C 693.703796 327.743286 688.557251 315.710754 684.449951 307.412842 C 680.34259 299.114929 673.273621 286.89032 668.741028 280.247131 C 664.208496 273.603882 656.62207 263.518127 651.882385 257.83429 C 647.1427 252.150391 637.451599 241.842712 630.346619 234.928284 C 623.241638 228.013855 612.853271 218.71167 607.261414 214.256836 C 601.669556 209.802002 592.685669 203.049011 587.29718 199.250244 C 581.908752 195.451416 571.875 188.85907 565 184.600586 C 558.125 180.342041 543.383484 172.319763 532.241089 166.773254 C 512.014832 156.705017 511.975616 156.690735 507.890472 157.914673 C 505.639984 158.588928 495.181488 163.513489 484.649353 168.858215 C 474.117218 174.202881 459.585388 182.26709 452.356445 186.778625 C 445.127472 191.290222 432.977478 199.655884 425.356445 205.369019 C 417.735382 211.082092 406.549988 220.231323 400.5 225.700562 C 394.450012 231.169861 385.635254 239.887146 380.911682 245.072327 C 376.18811 250.257568 369.596649 257.959045 366.264008 262.186768 C 362.931335 266.41449 357.225433 274.406189 353.584167 279.946106 C 349.942902 285.486023 344.709778 294.237 341.955017 299.392761 C 339.200256 304.548462 335.204742 312.841614 333.076111 317.821899 C 330.94751 322.802185 327.819214 331.0672 326.124329 336.188477 C 324.429474 341.309814 321.928375 350.224976 320.566345 356 C 319.204315 361.775024 317.375641 371.411133 316.502594 377.413635 C 315.629578 383.416077 314.6474 395.566101 314.319977 404.413635 C 313.986206 413.432434 314.223145 426.917419 314.859253 435.106567 C 315.483276 443.140198 316.939117 455.290222 318.094421 462.106567 C 319.249725 468.922974 321.480469 479.450012 323.051666 485.5 C 324.622864 491.549988 327.732788 501.450012 329.962616 507.5 C 332.192444 513.549988 336.693298 523.900024 339.964539 530.5 C 343.235809 537.099976 348.996063 547.224976 352.765137 553 C 356.53421 558.775024 362.676727 567.325012 366.415192 572 C 370.153625 576.674988 378.111816 585.454224 384.100037 591.50946 C 394.987671 602.518921 394.987671 602.518921 391.493042 610.601929 C 389.571014 615.047607 387.255493 621.695557 386.347443 625.375244 C 385.439392 629.054871 384.340973 631.938232 383.906464 631.782715 C 383.471954 631.627197 378.677399 627.533997 373.251831 622.686646 C 367.826294 617.839233 360.227631 610.414307 356.365906 606.186646 C 352.504211 601.958984 346.259277 594.674988 342.488312 590 C 338.717316 585.325012 332.377686 576.549988 328.400238 570.5 C 324.42276 564.450012 318.473755 554.325012 315.180237 548 C 311.886688 541.674988 307.141327 531.325012 304.634979 525 C 302.128662 518.674988 298.747925 509.178833 297.122253 503.8974 C 295.496582 498.616028 293.018799 489.166016 291.616089 482.8974 C 290.213379 476.628845 288.388428 466.973755 287.560638 461.44165 C 286.73288 455.909546 285.594177 445.334534 285.030212 437.94165 C 284.466278 430.548767 284.00531 419.099976 284.005859 412.5 C 284.006378 405.900024 284.470795 395.325012 285.037872 389 C 285.60495 382.674988 286.958435 372.223389 288.045624 365.774231 C 289.132843 359.325073 291.344116 348.922119 292.959656 342.656555 C 294.575165 336.39093 298.024536 325.467529 300.624939 318.382263 C 303.225342 311.297058 308.778595 298.75 312.965485 290.5 C 317.152405 282.25 323.435455 271.224976 326.927826 266 C 330.420197 260.775024 336.435638 252 340.295471 246.5 C 345.261383 239.423889 353.115326 230.742798 367.157043 216.80957 C 378.071075 205.979858 391.838104 193.233276 397.750397 188.483948 C 403.662659 183.734558 415.061005 175.416565 423.080048 169.999512 C 431.09906 164.58252 443.249054 156.945007 450.080048 153.027283 C 456.911011 149.109619 467.666656 143.379272 473.981445 140.293274 C 480.296265 137.207214 490.196259 132.690125 495.981445 130.255249 C 501.766663 127.820435 507.878632 125.596619 509.563599 125.313538 C 511.687714 124.956665 515.214233 125.875732 521.063599 128.31073 C 525.703613 130.242249 534.224976 134.040222 540 136.75061 C 545.775024 139.460938 556.799988 145.180786 564.5 149.461304 C 572.200012 153.741821 586.150024 162.330933 595.5 168.548218 C 604.849976 174.765503 617.450012 183.785461 623.5 188.592651 C 629.549988 193.39978 641.421509 204.120483 649.881104 212.416443 C 658.340698 220.712402 668.164001 230.873108 671.710693 234.99585 C 675.257324 239.118591 681.786072 247.893555 686.219055 254.49585 C 690.651978 261.098145 696.554199 269.650024 699.335144 273.5 C 702.116028 277.349976 706.746277 285 709.624573 290.5 C 712.502869 296 716.879517 305.450012 719.350403 311.5 C 721.82135 317.549988 725.459167 327.832886 727.434509 334.350891 C 729.40979 340.868958 732.11377 352.118958 733.443298 359.350891 C 734.772827 366.582886 736.340454 377.674988 736.92688 384 C 737.513367 390.325012 737.99469 401.372559 737.996582 408.55011 C 737.998474 415.727661 737.529785 427.652649 736.955078 435.05011 C 736.38031 442.447571 734.799377 455.726563 733.441833 464.559082 C 732.08429 473.391541 729.431519 486.666565 727.546753 494.059082 C 725.662048 501.451599 722.256104 512.900024 719.978027 519.5 C 717.699951 526.099976 713.2724 537.125 710.138977 544 C 707.005493 550.875 701.219055 561.94458 697.28009 568.599121 C 693.341125 575.253662 686.787964 585.153687 682.717407 590.599121 C 678.646912 596.044617 671.417664 604.851685 666.652527 610.17041 C 661.887329 615.489197 655.039978 622.464233 651.436157 625.67041 C 647.832275 628.876709 644.082458 632.069153 643.10321 632.764832 Z M 516 546.37146 C 510.774994 546.639465 503.326782 546.461426 499.448425 545.975708 C 495.570038 545.490112 488.595032 543.900757 483.948425 542.443848 C 479.301788 540.986938 472.125 538.040771 468 535.896729 C 463.875 533.752686 457.491516 529.73468 453.814484 526.967896 C 450.137451 524.20105 445.016327 519.588867 442.434204 516.718628 C 439.852081 513.848389 435.941193 508.853455 433.743378 505.618835 C 431.545563 502.384216 427.997894 496.004456 425.859711 491.441711 C 423.721527 486.878906 420.979401 478.950439 419.766113 473.822876 C 418.130188 466.909058 417.561066 461.39917 417.56366 452.5 C 417.566284 443.535522 418.142242 438.050049 419.840546 430.814941 C 421.349365 424.387146 423.943024 417.492615 427.552521 410.314941 C 430.653748 404.147888 435.588593 396.375854 439.035095 392.230591 C 442.359283 388.232422 448.476257 382.261597 452.628387 378.962097 C 456.780487 375.662537 464.719574 370.734741 470.270813 368.011414 C 476.412506 364.998352 484.109802 362.18042 489.931976 360.813538 C 497.054108 359.141418 502.567596 358.567139 511.5 358.567139 C 520.432434 358.567139 525.945923 359.141418 533.068054 360.813538 C 538.890198 362.18042 546.587463 364.998352 552.729187 368.011414 C 558.280396 370.734741 566.143372 375.602051 570.202393 378.827576 C 574.261414 382.053162 579.639282 387.123962 582.153198 390.09613 C 584.667175 393.068237 588.34375 397.974976 590.323486 401 C 592.303162 404.025024 595.52948 409.988831 597.493103 414.25293 C 599.456665 418.517029 602.032776 426.163025 603.217773 431.24408 C 604.659729 437.42688 605.393372 443.957886 605.436157 450.99115 C 605.471252 456.770996 604.940918 464.750732 604.25769 468.723877 C 603.574402 472.697021 602.049072 478.772034 600.868103 482.223877 C 599.687134 485.67572 597.372131 491.200012 595.723572 494.5 C 594.075073 497.799988 590.902771 503.18811 588.674072 506.473572 C 586.445313 509.759033 581.657532 515.411438 578.034485 519.034485 C 574.411438 522.657532 568.759033 527.444641 565.473572 529.672485 C 562.18811 531.90033 557.035095 534.969849 554.022461 536.493713 C 551.009827 538.017517 546.059814 540.128601 543.022461 541.184998 C 539.985107 542.241394 534.799988 543.730835 531.5 544.494934 C 528.200012 545.259033 521.224976 546.103455 516 546.37146 Z"/>
        <path id="path2" fill="#00ff00" fill-rule="evenodd" stroke="none" d="M 639.050659 624.764893 C 641.137573 633.274536 641.467896 633.926514 643.10321 632.764832 C 644.082458 632.069153 647.832275 628.876709 651.436157 625.67041 C 655.039978 622.464233 661.887329 615.489197 666.652527 610.17041 C 671.417664 604.851685 678.646912 596.044617 682.717407 590.599121 C 686.787964 585.153687 693.341125 575.253662 697.28009 568.599121 C 701.219055 561.94458 707.005493 550.875 710.138977 544 C 713.2724 537.125 717.699951 526.099976 719.978027 519.5 C 722.256104 512.900024 725.662048 501.451599 727.546753 494.059082 C 729.431519 486.666565 732.08429 473.391541 733.441833 464.559082 C 734.799377 455.726563 736.38031 442.447571 736.955078 435.05011 C 737.529785 427.652649 737.998474 415.727661 737.996582 408.55011 C 737.99469 401.372559 737.513367 390.325012 736.92688 384 C 736.340454 377.674988 734.772827 366.582886 733.443298 359.350891 C 732.11377 352.118958 729.40979 340.868958 727.434509 334.350891 C 725.459167 327.832886 721.82135 317.549988 719.350403 311.5 C 716.879517 305.450012 712.502869 296 709.624573 290.5 C 706.746277 285 702.116028 277.349976 699.335144 273.5 C 696.554199 269.650024 690.651978 261.098145 686.219055 254.49585 C 681.786072 247.893555 675.257324 239.118591 671.710693 234.99585 C 668.164001 230.873108 658.340698 220.712402 649.881104 212.416443 C 641.421509 204.120483 629.549988 193.39978 623.5 188.592651 C 617.450012 183.785461 604.849976 174.765503 595.5 168.548218 C 586.150024 162.330933 572.200012 153.741821 564.5 149.461304 C 556.799988 145.180786 545.775024 139.460938 540 136.75061 C 534.224976 134.040222 525.703613 130.242249 521.063599 128.31073 C 515.214233 125.875732 511.687714 124.956665 509.563599 125.313538 C 507.878632 125.596619 501.766663 127.820435 495.981445 130.255249 C 490.196259 132.690125 480.296265 137.207214 473.981445 140.293274 C 467.666656 143.379272 456.911011 149.109619 450.080048 153.027283 C 443.249054 156.945007 431.09906 164.58252 423.080048 169.999512 C 415.061005 175.416565 403.662659 183.734558 397.750397 188.483948 C 391.838104 193.233276 378.071075 205.979858 367.157043 216.80957 C 353.115326 230.742798 345.261383 239.423889 340.295471 246.5 C 336.435638 252 330.420197 260.775024 326.927826 266 C 323.435455 271.224976 317.152405 282.25 312.965485 290.5 C 308.778595 298.75 303.225342 311.297058 300.624939 318.382263 C 298.024536 325.467529 294.575165 336.39093 292.959656 342.656555 C 291.344116 348.922119 289.132843 359.325073 288.045624 365.774231 C 286.958435 372.223389 285.60495 382.674988 285.037872 389 C 284.470795 395.325012 284.006378 405.900024 284.005859 412.5 C 284.00531 419.099976 284.466278 430.548767 285.030212 437.94165 C 285.594177 445.334534 286.73288 455.909546 287.560638 461.44165 C 288.388428 466.973755 290.213379 476.628845 291.616089 482.8974 C 293.018799 489.166016 295.496582 498.616028 297.122253 503.8974 C 298.747925 509.178833 302.128662 518.674988 304.634979 525 C 307.141327 531.325012 311.886688 541.674988 315.180237 548 C 318.473755 554.325012 324.42276 564.450012 328.400238 570.5 C 332.377686 576.549988 338.717316 585.325012 342.488312 590 C 346.259277 594.674988 352.504211 601.958984 356.365906 606.186646 C 360.227631 610.414307 367.826294 617.839233 373.251831 622.686646 C 378.677399 627.533997 383.471954 631.627197 383.906464 631.782715 C 384.340973 631.938232 385.439392 629.054871 386.347443 625.375244 C 387.255493 621.695557 389.571014 615.047607 391.493042 610.601929 C 392.870239 607.416504 393.704681 605.48645 393.543945 603.643127 C 393.296753 600.809082 390.696991 598.180237 384.100037 591.50946 C 378.111816 585.454224 370.153625 576.674988 366.415192 572 C 362.676727 567.325012 356.53421 558.775024 352.765137 553 C 348.996063 547.224976 343.235809 537.099976 339.964539 530.5 C 336.693298 523.900024 332.192444 513.549988 329.962616 507.5 C 327.732788 501.450012 324.622864 491.549988 323.051666 485.5 C 321.480469 479.450012 319.249725 468.922974 318.094421 462.106567 C 316.939117 455.290222 315.483276 443.140198 314.859253 435.106567 C 314.223145 426.917419 313.986206 413.432434 314.319977 404.413635 C 314.6474 395.566101 315.629578 383.416077 316.502594 377.413635 C 317.375641 371.411133 319.204315 361.775024 320.566345 356 C 321.928375 350.224976 324.429474 341.309814 326.124329 336.188477 C 327.819214 331.0672 330.94751 322.802185 333.076111 317.821899 C 335.204742 312.841614 339.200256 304.548462 341.955017 299.392761 C 344.709778 294.237 349.942902 285.486023 353.584167 279.946106 C 357.225433 274.406189 362.931335 266.41449 366.264008 262.186768 C 369.596649 257.959045 376.18811 250.257568 380.911682 245.072327 C 385.635254 239.887146 394.450012 231.169861 400.5 225.700562 C 406.549988 220.231323 417.735382 211.082092 425.356445 205.369019 C 432.977478 199.655884 445.127472 191.290222 452.356445 186.778625 C 459.585388 182.26709 474.117218 174.202881 484.649353 168.858215 C 495.181488 163.513489 505.639984 158.588928 507.890472 157.914673 C 511.975616 156.690735 512.014832 156.705017 532.241089 166.773254 C 543.383484 172.319763 558.125 180.342041 565 184.600586 C 571.875 188.85907 581.908752 195.451416 587.29718 199.250244 C 592.685669 203.049011 601.669556 209.802002 607.261414 214.256836 C 612.853271 218.71167 623.241638 228.013855 630.346619 234.928284 C 637.451599 241.842712 647.1427 252.150391 651.882385 257.83429 C 656.62207 263.518127 664.208496 273.603882 668.741028 280.247131 C 673.273621 286.89032 680.34259 299.114929 684.449951 307.412842 C 688.557251 315.710754 693.703796 327.743286 695.886658 334.151733 C 698.06958 340.560181 701.007507 350.939636 702.415466 357.217224 C 703.823425 363.494812 705.655945 374.448792 706.487671 381.559387 C 707.319458 388.669983 707.998474 400.790527 707.996582 408.493896 C 707.99469 416.197266 707.531555 427.674988 706.967285 434 C 706.403076 440.325012 705.237915 450.450012 704.378113 456.5 C 703.518311 462.549988 701.729553 472.450012 700.403137 478.5 C 699.07666 484.549988 696.369873 494.674988 694.387939 501 C 692.406067 507.325012 689.001831 517 686.822998 522.5 C 684.644165 528 680.664978 536.631836 677.980347 541.681763 C 675.295715 546.731812 670.75708 554.606812 667.894592 559.181763 C 665.032043 563.756836 660.004028 571.034119 656.721191 575.353577 C 653.438354 579.673035 646.460693 587.678589 641.215149 593.143616 C 635.157043 599.455322 632.947083 601.757751 632.794556 604.189331 C 632.706909 605.585754 633.297852 607.02478 634.22821 609.290161 C 635.630859 612.705688 637.800964 619.669312 639.050659 624.764893 Z M 636.602356 742.383911 C 636.237793 746.847778 635.656738 753.609924 634.682861 764.321838 L 649.788879 763.640137 C 658.097168 763.265259 670.430969 762.288818 677.197388 761.470215 C 683.963867 760.651672 694.450012 759.063843 700.5 757.94165 C 706.549988 756.819519 716.674988 754.569702 723 752.942017 C 729.325012 751.314392 740.125 748.128845 747 745.863037 C 753.875 743.597168 764.674988 739.528687 771 736.821899 C 777.325012 734.115112 787 729.520508 792.5 726.611694 C 798 723.70282 806.549988 718.815796 811.5 715.751587 C 816.450012 712.687378 824.622253 707.102295 829.660645 703.340149 C 834.698975 699.578064 843.202454 692.674988 848.557312 688 C 853.91217 683.325012 862.547668 674.775024 867.747375 669 C 872.947083 663.224976 880.907715 653.549988 885.437805 647.5 C 889.967834 641.450012 896.48175 632 899.913208 626.5 C 903.344604 621 909.68219 609.299988 913.996704 600.5 C 918.311157 591.700012 924.127563 578.346375 926.921936 570.825317 C 929.71637 563.304199 933.592896 551.625854 935.536438 544.873413 C 937.47998 538.120911 940.162231 527.174561 941.496948 520.548096 C 942.831665 513.921631 944.503418 503.325012 945.211853 497 C 945.920349 490.674988 946.5 476.5 946.5 465.5 C 946.5 454.5 945.920349 440.325012 945.211853 434 C 944.503418 427.674988 942.834717 417.093445 941.503723 410.485413 C 940.172729 403.877319 937.488281 392.980652 935.538269 386.270508 C 933.588257 379.560364 929.967896 368.830994 927.492981 362.42749 C 925.018066 356.023926 920.372253 345.305786 917.169006 338.609253 C 913.965698 331.912781 908.505676 321.498718 905.035583 315.466919 C 901.565491 309.43512 895.57489 299.775024 891.723145 294 C 887.871338 288.224976 881.675903 279.450012 877.955505 274.5 C 874.235046 269.549988 867.491028 261.080078 862.96875 255.677979 C 858.446472 250.275879 849.740967 240.640869 843.62323 234.266968 C 837.505432 227.893005 827.775024 218.395447 822 213.161194 C 816.224976 207.927002 807.900024 200.758484 803.5 197.231079 C 799.287598 193.854156 797.293274 192.255341 795.023987 191.579102 C 792.983521 190.971054 790.720764 191.108887 786.423462 191.370667 C 781.431396 191.674805 771.081421 192.87793 763.423462 194.04425 C 755.765564 195.210571 744.099976 197.26239 737.5 198.60376 C 730.900024 199.945129 720.549988 202.337036 714.5 203.919128 C 708.450012 205.50116 700.887085 207.555908 697.693481 208.485168 C 694.095459 209.532166 692.003601 210.65863 692.193481 211.446899 C 692.362061 212.146545 693.889038 214.289185 695.58667 216.208313 C 697.284363 218.12738 700.434387 222.147156 702.58667 225.141052 C 704.739014 228.134949 707.422607 231.841553 708.550171 233.377991 C 709.19043 234.250351 709.630676 234.850296 710.221313 235.185287 C 711.521912 235.923019 713.551331 235.375763 720.050171 233.623352 C 725.247559 232.221863 733.775024 230.146484 739 229.011414 C 744.224976 227.876282 753.900024 226.051758 760.5 224.956909 C 767.099976 223.862 775.650024 222.702576 779.5 222.380432 C 782.009705 222.170425 783.619568 222.035706 785.125 222.370636 C 787.818481 222.969894 790.177429 225.072571 796.757141 230.937378 C 802.39856 235.96582 811.105164 244.224548 816.105225 249.290039 C 821.105225 254.35553 829.040588 262.775024 833.739319 268 C 838.438049 273.224976 846.436462 282.900024 851.513611 289.5 C 856.590698 296.099976 864.106018 306.674988 868.214172 313 C 872.322388 319.325012 878.426636 329.450012 881.779236 335.5 C 885.131775 341.549988 890.140747 351.531921 892.910278 357.682068 C 895.67981 363.832214 899.787354 374.18219 902.038147 380.682068 C 904.289001 387.181946 907.48053 397.674988 909.130554 404 C 910.780518 410.325012 913.0224 421.349976 914.112549 428.5 C 915.202698 435.650024 916.367371 448.640198 916.700745 457.367126 C 917.072998 467.113647 916.836792 478.107361 916.088379 485.867126 C 915.418213 492.815186 913.785645 504.386719 912.460388 511.581665 C 911.135132 518.77655 908.500488 530.049683 906.605591 536.633057 C 904.710693 543.216492 900.920593 554.460083 898.183105 561.618835 C 895.445679 568.777588 890.673462 579.842773 887.578247 586.20813 C 884.483032 592.573486 879.429749 601.993164 876.348755 607.140747 C 873.267761 612.28833 868.034851 620.325012 864.719971 625 C 861.405151 629.674988 855.426697 637.325012 851.434448 642 C 847.442261 646.674988 840.423828 654.163696 835.837952 658.641602 C 831.252075 663.119385 823.804749 669.733704 819.28833 673.339966 C 814.771912 676.946289 807.121887 682.555054 802.28833 685.803833 C 797.454773 689.052734 789.450012 694.012451 784.5 696.825562 C 779.549988 699.638672 770.47998 704.187378 764.344421 706.933838 C 758.208862 709.680359 747.858887 713.775757 741.344421 716.03479 C 734.830017 718.293762 723.604065 721.663086 716.397949 723.522095 C 709.191772 725.381104 697.941772 727.796265 691.397949 728.88916 C 684.854065 729.982056 675.450012 731.3349 670.5 731.895508 C 665.549988 732.456116 656.04718 733.219238 649.382629 733.591309 C 637.265198 734.267822 637.265198 734.267822 636.602356 742.383911 Z M 360.736908 762.91394 C 366.106598 763.357361 374.91507 763.783081 380.311279 763.860107 C 386.479553 763.948059 388.769867 763.980713 389.482086 762.936768 C 389.90271 762.32019 389.772858 761.328064 389.566345 759.75 C 389.260437 757.412476 388.762115 752.125 388.458984 748 C 388.155853 743.875 387.695038 739.100708 387.434967 737.390564 C 386.962097 734.281128 386.962097 734.281128 374.731049 733.597961 C 368.003967 733.222229 358.450012 732.456116 353.5 731.895508 C 348.549988 731.3349 339.145935 729.982056 332.602081 728.88916 C 326.058228 727.796265 314.808228 725.381104 307.602081 723.522095 C 300.395935 721.663086 289.170013 718.293762 282.655548 716.03479 C 276.141113 713.775757 265.791138 709.680359 259.655548 706.933838 C 253.520004 704.187378 244.449997 699.638672 239.5 696.825562 C 234.550003 694.012451 226.56633 689.066895 221.758499 685.835327 C 216.950668 682.603821 208.625671 676.421021 203.258499 672.095825 C 197.891327 667.770691 188.993912 659.567261 183.486481 653.865967 C 177.979034 648.164673 170.672729 639.99353 167.250244 635.707764 C 163.827744 631.422058 157.562378 622.647095 153.327209 616.207764 C 149.092026 609.768494 142.147354 597.525024 137.894608 589 C 133.641861 580.474976 127.866112 567.322144 125.059608 559.771362 C 122.253105 552.220581 118.417526 540.426086 116.536102 533.561279 C 114.654671 526.696533 112.21373 515.99939 111.111771 509.789917 C 110.009819 503.580444 108.564835 492.815186 107.900703 485.867126 C 107.164261 478.16272 106.929634 467.044067 107.299286 457.367126 C 107.632645 448.640198 108.797318 435.650024 109.887451 428.5 C 110.977577 421.349976 113.219482 410.325012 114.869461 404 C 116.51944 397.674988 119.711006 387.181946 121.96183 380.682068 C 124.212662 374.18219 128.320206 363.832214 131.089722 357.682068 C 133.859253 351.531921 138.868225 341.549988 142.220795 335.5 C 145.573349 329.450012 151.658112 319.356812 155.742477 313.070618 C 159.826843 306.784485 167.144379 296.434448 172.003662 290.070618 C 176.862946 283.706787 184.874039 274 189.806076 268.5 C 194.738129 263 202.766891 254.448059 207.647797 249.495728 C 212.528687 244.543335 221.242172 236.284668 227.011078 231.143066 C 233.785858 225.10495 236.184814 222.966843 238.920517 222.368622 C 240.420303 222.040649 242.021286 222.175507 244.5 222.384277 C 248.350006 222.708557 255.774994 223.657471 261 224.492981 C 266.225006 225.328491 275 226.946472 280.5 228.08844 C 286 229.230469 294.96875 231.316101 300.430573 232.723206 C 307.532318 234.55275 309.555298 235.073898 310.888458 234.340729 C 311.419495 234.048691 311.841064 233.557632 312.430573 232.870972 C 313.568756 231.545166 316.299988 227.994324 318.5 224.980225 C 320.700012 221.966125 324.075012 217.756775 326 215.62616 C 327.924988 213.495544 329.627136 211.228455 329.782501 210.588196 C 329.956909 209.869385 324.688812 207.978027 316.011841 205.644165 C 308.282593 203.565247 296.680481 200.742798 290.22934 199.37207 C 283.778198 198.001282 271.524994 195.780396 263 194.436768 C 254.475006 193.093079 243.225006 191.729248 238 191.406006 C 233.406296 191.121826 231.033875 190.975052 228.904129 191.624329 C 226.629456 192.317795 224.631622 193.919327 220.5 197.231384 C 216.100006 200.758606 207.774994 207.953369 202 213.219788 C 196.225006 218.486206 187.404968 227.003662 182.399948 232.147522 C 177.394913 237.291382 169.969284 245.325012 165.898529 250 C 161.827789 254.674988 155.311615 262.549988 151.418152 267.5 C 147.524689 272.450012 141.168015 281 137.292221 286.5 C 133.416412 292 126.749985 302.325989 122.477921 309.446594 C 118.205856 316.567261 111.844772 328.267273 108.342186 335.446594 C 104.839592 342.625977 99.748169 354.195374 97.027916 361.156433 C 94.307655 368.117493 90.469696 379.360901 88.499123 386.141785 C 86.528542 392.922729 83.794205 404.012329 82.422821 410.7854 C 81.05143 417.558472 79.275093 429.265015 78.475403 436.799988 C 77.675705 444.335022 77.021416 457.25 77.021416 465.5 C 77.021416 473.75 77.66951 486.575012 78.461632 494 C 79.253746 501.424988 80.800552 512.118713 81.898972 517.763794 C 82.997391 523.408875 85.246681 533.083862 86.897392 539.263794 C 88.548111 545.443726 91.694115 555.703308 93.888527 562.062866 C 96.082932 568.422485 99.975334 578.547485 102.538307 584.562866 C 105.101288 590.578308 109.642776 600.289856 112.630516 606.144104 C 115.618248 611.998413 120.821938 621.223389 124.194267 626.644104 C 127.566589 632.064819 134.041214 641.47937 138.582321 647.565308 C 143.123413 653.651245 150.852875 663.101257 155.758881 668.565308 C 160.664886 674.029419 169.287704 682.549988 174.920685 687.5 C 180.55368 692.450012 189.513428 699.748779 194.831238 703.719421 C 200.149063 707.690063 210.125 714.300537 217 718.409302 C 223.875 722.518066 234.675003 728.366516 241 731.405762 C 247.324997 734.445068 257.899994 738.982178 264.5 741.488281 C 271.100006 743.994385 282.624329 747.804688 290.109619 749.95575 C 297.594879 752.106812 309.069885 754.993408 315.609619 756.370605 C 322.149323 757.747742 332.781616 759.60199 339.236908 760.49115 C 345.6922 761.38031 355.367188 762.470581 360.736908 762.91394 Z M 499.448425 545.975708 C 503.326782 546.461426 510.774994 546.639465 516 546.37146 C 521.224976 546.103455 528.200012 545.259033 531.5 544.494934 C 534.799988 543.730835 539.985107 542.241394 543.022461 541.184998 C 546.059814 540.128601 551.009827 538.017517 554.022461 536.493713 C 557.035095 534.969849 562.18811 531.90033 565.473572 529.672485 C 568.759033 527.444641 574.411438 522.657532 578.034485 519.034485 C 581.657532 515.411438 586.445313 509.759033 588.674072 506.473572 C 590.902771 503.18811 594.075073 497.799988 595.723572 494.5 C 597.372131 491.200012 599.687134 485.67572 600.868103 482.223877 C 602.049072 478.772034 603.574402 472.697021 604.25769 468.723877 C 604.940918 464.750732 605.471252 456.770996 605.436157 450.99115 C 605.393372 443.957886 604.659729 437.42688 603.217773 431.24408 C 602.032776 426.163025 599.456665 418.517029 597.493103 414.25293 C 595.52948 409.988831 592.303162 404.025024 590.323486 401 C 588.34375 397.974976 584.667175 393.068237 582.153198 390.09613 C 579.639282 387.123962 574.261414 382.053162 570.202393 378.827576 C 566.143372 375.602051 558.280396 370.734741 552.729187 368.011414 C 546.587463 364.998352 538.890198 362.18042 533.068054 360.813538 C 525.945923 359.141418 520.432434 358.567139 511.5 358.567139 C 502.567596 358.567139 497.054108 359.141418 489.931976 360.813538 C 484.109802 362.18042 476.412506 364.998352 470.270813 368.011414 C 464.719574 370.734741 456.780487 375.662537 452.628387 378.962097 C 448.476257 382.261597 442.359283 388.232422 439.035095 392.230591 C 435.588593 396.375854 430.653748 404.147888 427.552521 410.314941 C 423.943024 417.492615 421.349365 424.387146 419.840546 430.814941 C 418.142242 438.050049 417.566284 443.535522 417.56366 452.5 C 417.561066 461.39917 418.130188 466.909058 419.766113 473.822876 C 420.979401 478.950439 423.721527 486.878906 425.859711 491.441711 C 427.997894 496.004456 431.545563 502.384216 433.743378 505.618835 C 435.941193 508.853455 439.852081 513.848389 442.434204 516.718628 C 445.016327 519.588867 450.137451 524.20105 453.814484 526.967896 C 457.491516 529.73468 463.875 533.752686 468 535.896729 C 472.125 538.040771 479.301788 540.986938 483.948425 542.443848 C 488.595032 543.900757 495.570038 545.490112 499.448425 545.975708 Z M 503.176453 516.208252 C 503.903717 516.299316 505.767029 516.412964 507.936249 516.464783 C 510.315582 516.521667 512.723755 516.500061 514.463257 516.410828 C 518.064575 516.226135 523.368896 515.583984 524.732666 515.268188 C 527.001709 514.742798 531.156433 513.549316 533.16748 512.849854 C 534.927063 512.237915 538.6474 510.651245 540.481445 509.723572 C 542.305969 508.80069 546.368652 506.380615 548.636658 504.842682 C 549.214844 504.450653 550.640564 503.337463 552.239014 501.983673 C 553.988647 500.501892 555.686646 498.955902 556.821289 497.821289 C 557.956421 496.686157 559.503052 494.98761 560.985535 493.237366 C 562.34021 491.638031 563.454407 490.211395 563.84729 489.632263 C 565.343689 487.426331 567.842285 483.182434 568.886108 481.092926 C 569.938599 478.986053 571.736328 474.696259 572.483398 472.512695 C 573.134766 470.608734 574.272217 466.078491 574.69165 463.639648 C 574.817322 462.908661 575.02533 460.908417 575.182312 458.545685 C 575.356689 455.922333 575.449097 453.216827 575.436707 451.173645 C 575.407166 446.318298 574.922852 442.007172 574.00177 438.0578 C 573.265381 434.900238 571.335999 429.173676 570.243591 426.801361 C 568.864685 423.807007 566.331482 419.12439 565.221375 417.428162 C 563.925842 415.448578 560.984253 411.522766 559.247803 409.46994 C 558.868835 409.021851 557.656982 407.780212 556.176208 406.384003 C 554.526917 404.828827 552.804688 403.321198 551.538147 402.314758 C 549.247864 400.49472 543.209167 396.756683 539.51593 394.944855 C 535.337097 392.894775 529.756775 390.851837 526.211182 390.019409 C 521.459534 388.903839 518.226929 388.567139 511.5 388.567139 C 504.773102 388.567139 501.540497 388.903839 496.788696 390.01944 C 493.243195 390.851837 487.662842 392.894775 483.483856 394.944946 C 479.799744 396.752319 473.687073 400.546448 471.292542 402.44931 C 468.744446 404.474152 464.104614 409.003143 462.103302 411.410217 C 460.214264 413.682251 456.486389 419.553406 454.354401 423.79303 C 451.75705 428.958008 449.988037 433.660461 449.046722 437.670532 C 447.902191 442.546417 447.565643 445.751862 447.56366 452.508759 C 447.561707 459.194183 447.893768 462.408966 448.959961 466.915009 C 449.703979 470.059357 451.771149 476.036255 453.024872 478.711639 C 454.526276 481.915558 457.314056 486.928833 458.557343 488.758575 C 459.994141 490.873199 463.06662 494.797363 464.737244 496.654388 C 465.192841 497.160797 466.382477 498.322144 467.790283 499.590057 C 469.301056 500.950684 470.826843 502.22467 471.852051 502.996124 C 474.200745 504.763397 479.178467 507.896545 481.835724 509.27771 C 484.383728 510.602081 489.933655 512.880432 492.923859 513.817932 C 495.941437 514.764099 501.184967 515.958923 503.176453 516.208252 Z M 501.34668 923.971436 C 504.181 924.481384 510.325012 924.697754 515 924.452148 C 519.674988 924.206665 525.752319 923.399231 528.505127 922.657959 C 531.257996 921.916687 535.532959 920.40509 538.005127 919.298828 C 540.477295 918.192505 545.200012 915.234009 548.5 912.724365 C 551.799988 910.214722 556.151001 906.170532 558.168884 903.737305 C 560.186707 901.304077 563.957031 896.037109 566.547241 892.03302 C 569.137512 888.028931 572.963196 880.818481 575.048828 876.009766 C 577.13446 871.201111 580.644165 861.62616 582.848145 854.732117 C 585.052185 847.838074 588.205811 835.965515 589.856262 828.348755 C 591.506714 820.731934 593.776489 808.875 594.900269 802 C 596.024048 795.125 597.830444 782.299988 598.914429 773.5 C 599.998474 764.700012 601.580872 749.625 602.430908 740 C 603.280884 730.375 604.687561 710.568909 605.556763 695.98645 C 606.426025 681.403931 607.218811 662.953979 607.318604 654.98645 C 607.427734 646.270508 606.978333 637.910767 606.19043 634 C 605.470215 630.424988 602.899536 623.3927 600.477844 618.372742 C 597.140747 611.455139 594.229675 607.284058 588.452942 601.143433 C 584.260925 596.687256 577.689758 590.952942 573.850403 588.400513 C 570.010986 585.848145 563.30658 582.25708 558.95166 580.42041 C 554.596741 578.58374 550.01355 576.957275 548.766785 576.806152 C 547.520081 576.654968 542 577.424255 536.5 578.515625 C 529.210449 579.962158 522.434265 580.5 511.5 580.5 C 501.065094 580.5 493.452515 579.929688 486.486572 578.625977 C 480.89032 577.578674 478.421661 577.116699 476.066406 577.451721 C 474.207367 577.716187 472.418976 578.477234 469.218994 579.838928 C 465.229218 581.536743 458.767883 584.993958 454.860474 587.521606 C 450.953094 590.049316 445.280182 594.453491 442.253998 597.308716 C 439.227814 600.16394 434.771179 605.068298 432.350342 608.207275 C 429.929504 611.346313 426.137054 617.69043 423.922699 622.305237 C 421.682861 626.973145 419.204803 634.207397 418.337311 638.610596 C 416.983276 645.483521 416.926025 649.748901 417.902252 671.012695 C 418.520599 684.480713 419.488098 703.150024 420.052277 712.5 C 420.616455 721.849976 421.734161 736.474976 422.536072 745 C 423.337982 753.525024 424.703979 766.349976 425.571625 773.5 C 426.43927 780.650024 428.015778 792.006226 429.074982 798.736084 C 430.134216 805.465881 432.153351 816.490906 433.561951 823.236084 C 434.970581 829.981201 437.452271 840.224976 439.076843 846 C 440.701385 851.775024 443.438232 860.325012 445.158691 865 C 446.87915 869.674988 450.082947 877.099976 452.278259 881.5 C 454.473541 885.900024 458.095154 892.200012 460.326263 895.5 C 462.557343 898.799988 466.925354 904.052185 470.032928 907.171509 C 473.140472 910.290833 477.869873 914.229858 480.542694 915.924927 C 483.215485 917.619995 487.830322 919.915283 490.797852 921.025574 C 493.765381 922.135864 498.51236 923.461487 501.34668 923.971436 Z M 506.533966 894.401855 C 507.062592 894.44635 507.758423 894.486206 508.538757 894.513733 C 510.245514 894.573792 512.067505 894.564819 513.426086 894.493469 C 514.870361 894.417603 516.760071 894.236389 518.522461 894.002258 C 519.333618 893.894531 520.060059 893.783081 520.621155 893.682983 C 520.747375 893.660461 520.85498 893.64032 520.940552 893.623596 C 521.503662 893.460266 522.406677 893.168213 523.359375 892.83136 C 524.223145 892.52594 525.00708 892.226074 525.474487 892.033447 L 525.550415 891.99115 C 525.941956 891.771606 526.452393 891.467346 527.015808 891.11438 C 528.241028 890.346863 529.493164 889.489258 530.339905 888.845276 C 531.103821 888.264343 532.268982 887.27124 533.39093 886.228333 C 533.933899 885.723694 534.42627 885.245178 534.815125 884.84729 C 534.959167 884.69989 535.075745 884.577087 535.15802 884.48761 C 536.389038 882.977356 539.406128 878.756042 541.358398 875.738159 C 543.029846 873.154419 546.082336 867.401306 547.526062 864.072449 C 549.178284 860.263184 552.35321 851.601563 554.272949 845.596558 C 556.178772 839.635376 559.085999 828.690552 560.536682 821.995667 C 562.081116 814.86792 564.254639 803.513916 565.293213 797.160461 C 566.349121 790.700439 568.101318 778.260437 569.139526 769.832092 C 570.18042 761.382385 571.726868 746.64978 572.54718 737.361023 C 573.369141 728.053345 574.75647 708.519226 575.609924 694.201294 C 576.453552 680.048706 577.228088 662.023743 577.320984 654.61084 C 577.366516 650.969971 577.298279 647.354614 577.134155 644.301697 C 577.059998 642.922302 576.96936 641.720154 576.871948 640.773621 C 576.839661 640.459473 576.808594 640.193054 576.780823 639.983093 C 576.745911 639.860413 576.702393 639.713196 576.651062 639.545654 C 576.436951 638.846802 576.142395 637.97644 575.795776 637.028198 C 575.054504 635.000427 574.183044 632.911316 573.457581 631.407471 C 571.482788 627.313965 570.329407 625.661316 566.60199 621.699097 C 565.284119 620.298218 563.319092 618.428528 561.294373 616.661682 C 559.470032 615.069702 557.847656 613.786377 557.242065 613.383728 C 554.975708 611.877136 549.929443 609.174255 547.293701 608.062622 C 546.719604 607.820496 546.132019 607.579895 545.552368 607.348816 C 544.511963 607.52655 543.416565 607.728088 542.339294 607.941833 C 532.912537 609.8125 524.250916 610.5 511.5 610.5 C 499.349487 610.5 489.956543 609.796265 480.968018 608.114014 C 480.586975 608.042725 480.236694 607.977356 479.914429 607.917419 C 477.33847 609.128601 473.318481 611.311096 471.155304 612.710449 C 468.737701 614.274414 464.502991 617.562073 462.841888 619.129333 C 460.948456 620.915771 457.552704 624.65271 456.106384 626.528015 C 455.761078 626.975769 454.827148 628.392578 453.808929 630.095886 C 452.678162 631.987427 451.622833 633.923279 450.970093 635.283569 C 450.428467 636.412354 449.675781 638.295837 448.99646 640.279053 C 448.364563 642.123718 447.898987 643.762573 447.771545 644.409424 C 447.041199 648.116516 447.005341 650.788025 447.870697 669.63678 C 448.482941 682.971985 449.443237 701.502197 449.997803 710.693054 C 450.542236 719.715637 451.63443 734.007019 452.404236 742.19043 C 453.181854 750.457336 454.519501 763.016113 455.353149 769.886047 C 456.178772 776.689819 457.706726 787.696167 458.710144 794.071655 C 459.691803 800.308594 461.621307 810.844116 462.928406 817.103271 C 464.201813 823.200928 466.523315 832.783386 467.955963 837.87616 C 469.376923 842.92749 471.876678 850.736816 473.312714 854.638916 C 474.653839 858.283203 477.420776 864.69574 479.12262 868.106689 C 480.756927 871.382385 483.728455 876.551514 485.179199 878.697266 C 486.322876 880.388855 489.48172 884.187134 491.286224 885.998474 C 492.101013 886.816345 493.365234 887.960327 494.650238 889.030579 C 495.262634 889.540649 495.836212 889.997742 496.307556 890.354248 C 496.472809 890.479248 496.611237 890.581055 496.714325 890.654541 C 497.108398 890.891785 497.961578 891.357056 498.919678 891.833557 C 499.974915 892.358398 500.94342 892.790466 501.310516 892.927795 C 502.520477 893.380493 505.155914 894.125977 506.368286 894.387268 C 506.417389 894.391785 506.472809 894.396729 506.533966 894.401855 Z"/>
    </g>
</svg>
